<svg width="1518" height="357" viewBox="0 0 1518 357" fill="none" xmlns="http://www.w3.org/2000/svg">
<path d="M1480.48 9.73779C1481.86 3.25519 1488.23 -0.882977 1494.71 0.494941L1508.41 3.4057C1514.89 4.78362 1519.03 11.1558 1517.65 17.6384L1447.66 346.895C1446.29 353.378 1439.91 357.516 1433.43 356.138L1419.74 353.227C1413.26 351.849 1409.12 345.477 1410.49 338.995L1480.48 9.73779Z" fill="#117DFC"/>
<path d="M85.5227 307C165.295 307 211.446 257.526 211.446 175.707C211.446 94.2727 165.295 45.1818 88.2074 45.1818H24.7642C11.5094 45.1818 0.764206 55.927 0.764206 69.1818L0.764206 283C0.764206 296.255 11.5094 307 24.7642 307H85.5227ZM64.267 272.483C51.0122 272.483 40.267 261.738 40.267 248.483V103.699C40.267 90.444 51.0122 79.6988 64.267 79.6988H85.7784C143.051 79.6988 172.582 113.96 172.582 175.707C172.582 237.71 143.051 272.483 83.3494 272.483H64.267Z" fill="#5C5C5C"/>
<path d="M342.131 310.963C375.792 310.963 401.713 297.932 415.488 276.837C421.606 267.467 414.477 256.202 403.463 254.217C394.38 252.58 385.819 258.142 379.631 264.991C371.003 274.541 358.068 279.386 342.515 279.386C317.605 279.386 298.916 267.092 290.958 244.532C286.464 231.792 297.925 220.324 311.434 220.324H412.827C420.311 220.324 426.379 214.257 426.379 206.773C426.379 135.821 383.935 108.08 339.447 108.08C284.731 108.08 248.68 149.756 248.68 210.097C248.68 271.077 284.219 310.963 342.131 310.963ZM312.261 191.687C298.488 191.687 287.105 179.598 293.504 167.401C302.036 151.138 318.287 139.656 339.702 139.656C360.872 139.656 376.832 150.859 384.28 168.197C389.527 180.412 378.114 191.687 364.819 191.687H312.261Z" fill="#5C5C5C"/>
<path d="M626.439 136.223C630.951 123.781 621.736 110.636 608.501 110.636C600.255 110.636 592.942 115.933 590.371 123.767L545.398 260.772C545.208 261.352 544.666 261.744 544.056 261.744C543.446 261.744 542.904 261.353 542.714 260.773L497.619 123.751C495.044 115.925 487.735 110.636 479.496 110.636C466.259 110.636 457.044 123.788 461.564 136.23L517.86 291.195C521.307 300.683 530.322 307 540.417 307H547.684C557.784 307 566.804 300.677 570.247 291.182L626.439 136.223Z" fill="#5C5C5C"/>
<path d="M747.323 310.963C802.678 310.963 838.857 270.437 838.857 209.713C838.857 148.605 802.678 108.08 747.323 108.08C691.968 108.08 655.789 148.605 655.789 209.713C655.789 270.437 691.968 310.963 747.323 310.963ZM747.451 278.875C711.272 278.875 694.397 247.298 694.397 209.585C694.397 172 711.272 140.04 747.451 140.04C783.374 140.04 800.249 172 800.249 209.585C800.249 247.298 783.374 278.875 747.451 278.875Z" fill="#5C5C5C"/>
<path d="M881.524 287.888C881.524 298.443 890.081 307 900.636 307C911.192 307 919.748 298.443 919.748 287.888V187.085C919.748 161.389 939.564 142.852 966.666 142.852C976.726 142.852 986.609 135.094 986.609 125.034V123.083C986.609 114.787 980.444 107.842 972.149 107.711C971.528 107.701 970.933 107.696 970.373 107.696C947.658 107.696 928.181 120.403 920.797 141.021C920.625 141.501 920.172 141.83 919.662 141.83C919.004 141.83 918.47 141.296 918.47 140.638V126.233C918.47 117.619 911.487 110.636 902.873 110.636H899.997C889.795 110.636 881.524 118.907 881.524 129.109V287.888Z" fill="#5C5C5C"/>
<path d="M1015.6 287.535C1015.6 298.285 1024.31 307 1035.06 307H1156.61C1165.78 307 1173.23 299.559 1173.23 290.381C1173.23 281.202 1165.78 273.761 1156.61 273.761H1068.71C1067.97 273.761 1067.37 273.163 1067.37 272.425C1067.37 272.131 1067.47 271.845 1067.65 271.612L1165.35 144.107C1168.14 140.474 1169.65 136.025 1169.65 131.449C1169.65 119.954 1160.33 110.636 1148.83 110.636H1035.67C1026.49 110.636 1019.05 118.077 1019.05 127.256C1019.05 136.434 1026.49 143.875 1035.67 143.875H1120.63C1121.37 143.875 1121.96 144.47 1121.96 145.204C1121.96 145.503 1121.86 145.792 1121.68 146.027L1019.77 275.495C1017.07 278.927 1015.6 283.167 1015.6 287.535Z" fill="#5C5C5C"/>
<path d="M1295.41 310.963C1350.76 310.963 1386.94 270.437 1386.94 209.713C1386.94 148.605 1350.76 108.08 1295.41 108.08C1240.05 108.08 1203.87 148.605 1203.87 209.713C1203.87 270.437 1240.05 310.963 1295.41 310.963ZM1295.54 278.875C1259.36 278.875 1242.48 247.298 1242.48 209.585C1242.48 172 1259.36 140.04 1295.54 140.04C1331.46 140.04 1348.34 172 1348.34 209.585C1348.34 247.298 1331.46 278.875 1295.54 278.875Z" fill="#5C5C5C"/>
</svg>
