<svg width="512" height="512" viewBox="0 0 512 512" fill="none" xmlns="http://www.w3.org/2000/svg">
<rect width="512" height="512" fill="#E5E5E5"/>
<rect width="512" height="512" fill="#18191A"/>
<path d="M187 138C187 131.373 192.373 126 199 126H220.081C226.708 126 232.081 131.373 232.081 138V333.143C232.081 339.77 237.453 345.143 244.081 345.143H312.5C319.127 345.143 324.5 350.515 324.5 357.143V374C324.5 380.627 319.127 386 312.5 386H199C192.373 386 187 380.627 187 374V138Z" fill="white"/>
<path d="M284 345H322C328.627 345 334 350.373 334 357V374C334 380.627 328.627 386 322 386H284V345Z" fill="#117DFC"/>
<rect x="286.586" y="340" width="13.9577" height="50.4376" transform="rotate(18 286.586 340)" fill="#18191A"/>
</svg>
