<svg width="1024" height="1024" viewBox="0 0 1024 1024" fill="none" xmlns="http://www.w3.org/2000/svg">
<path d="M437.489 651.127C437.489 652.785 438.834 654.129 440.493 654.127L600.51 653.918C601.866 653.916 603.054 654.824 603.409 656.132L628.671 749.211C629.189 751.12 627.751 752.998 625.774 752.997L320.998 752.801C319.342 752.8 318 751.458 318 749.801V186.515C318 185.34 318.685 184.274 319.753 183.786L433.242 131.94C435.229 131.032 437.489 132.484 437.489 134.669V651.127Z" fill="#FDFFFC"/>
<path d="M661.567 752.247H751.439C753.096 752.247 754.439 750.903 754.439 749.247V654.705C754.439 653.045 753.091 651.7 751.43 651.705L630.054 652.076C628.009 652.082 626.569 654.088 627.218 656.028L658.722 750.198C659.132 751.422 660.277 752.247 661.567 752.247Z" fill="#4DFFF8"/>
</svg>
