<svg width="512" height="512" viewBox="0 0 512 512" fill="none" xmlns="http://www.w3.org/2000/svg">
<rect width="512" height="512" fill="#E5E5E5"/>
<rect width="512" height="512" fill="#18191A"/>
<path d="M83 139C83 125.745 93.7452 115 107 115H187.795C212.841 115 234.92 120.888 254.034 132.663C273.367 144.17 288.307 160.495 298.852 181.637C309.617 202.779 315 227.4 315 255.5C315 283.6 309.617 308.221 298.852 329.363C288.307 350.505 273.367 366.963 254.034 378.739C234.92 390.246 212.841 396 187.795 396H107C93.7452 396 83 385.255 83 372V255.5V139ZM187.795 348.5C210.864 348.5 232.418 340.022 246.039 324.5C259.88 308.71 268.417 282.262 268.417 255.5C268.417 228.738 259.88 202.022 246.039 186.5C232.418 170.71 210.864 161.5 187.795 161.5H138.386C131.758 161.5 126.386 166.873 126.386 173.5V255.5V336.5C126.386 343.127 131.758 348.5 138.386 348.5H187.795Z" fill="white"/>
<path d="M388.852 126.738C390.23 120.255 396.603 116.117 403.085 117.495L416.779 120.406C423.262 121.784 427.4 128.156 426.022 134.638L372.665 385.666C371.287 392.148 364.914 396.286 358.432 394.908L344.738 391.998C338.255 390.62 334.117 384.248 335.495 377.765L388.852 126.738Z" fill="#117DFC"/>
</svg>
