<svg width="1521" height="361" viewBox="0 0 1521 361" fill="none" xmlns="http://www.w3.org/2000/svg">
<path d="M1480.48 11.7378C1481.86 5.25519 1488.23 1.11702 1494.71 2.49494L1508.41 5.4057C1514.89 6.78362 1519.03 13.1558 1517.65 19.6384L1447.66 348.895C1446.29 355.378 1439.91 359.516 1433.43 358.138L1419.74 355.227C1413.26 353.849 1409.12 347.477 1410.49 340.995L1480.48 11.7378Z" fill="#117DFC"/>
<path d="M85.5227 309C165.295 309 211.446 259.526 211.446 177.707C211.446 96.2727 165.295 47.1818 88.2074 47.1818H24.7642C11.5094 47.1818 0.764206 57.927 0.764206 71.1818L0.764206 285C0.764206 298.255 11.5094 309 24.7642 309H85.5227ZM64.267 274.483C51.0122 274.483 40.267 263.738 40.267 250.483V105.699C40.267 92.444 51.0122 81.6988 64.267 81.6988H85.7784C143.051 81.6988 172.582 115.96 172.582 177.707C172.582 239.71 143.051 274.483 83.3494 274.483H64.267Z" fill="white"/>
<path d="M342.131 312.963C375.792 312.963 401.713 299.932 415.488 278.837C421.606 269.467 414.477 258.202 403.463 256.217V256.217C394.38 254.58 385.819 260.142 379.631 266.991C371.003 276.541 358.068 281.386 342.515 281.386C317.605 281.386 298.916 269.092 290.958 246.532C286.464 233.792 297.925 222.324 311.434 222.324H412.827C420.311 222.324 426.379 216.257 426.379 208.773V208.773C426.379 137.821 383.935 110.08 339.447 110.08C284.731 110.08 248.68 151.756 248.68 212.097C248.68 273.077 284.219 312.963 342.131 312.963ZM312.261 193.687C298.488 193.687 287.105 181.598 293.504 169.401C302.036 153.138 318.287 141.656 339.702 141.656C360.872 141.656 376.832 152.859 384.28 170.197C389.527 182.412 378.114 193.687 364.819 193.687H312.261Z" fill="white"/>
<path d="M626.439 138.223C630.951 125.781 621.736 112.636 608.501 112.636V112.636C600.255 112.636 592.942 117.933 590.371 125.767L545.398 262.772C545.207 263.352 544.666 263.744 544.056 263.744V263.744C543.446 263.744 542.904 263.353 542.714 262.773L497.619 125.751C495.044 117.925 487.735 112.636 479.496 112.636V112.636C466.259 112.636 457.044 125.788 461.564 138.23L517.86 293.195C521.307 302.683 530.322 309 540.417 309H547.684C557.784 309 566.804 302.677 570.247 293.182L626.439 138.223Z" fill="white"/>
<path d="M747.323 312.963C802.678 312.963 838.857 272.437 838.857 211.713C838.857 150.605 802.678 110.08 747.323 110.08C691.968 110.08 655.789 150.605 655.789 211.713C655.789 272.437 691.968 312.963 747.323 312.963ZM747.451 280.875C711.272 280.875 694.397 249.298 694.397 211.585C694.397 174 711.272 142.04 747.451 142.04C783.374 142.04 800.249 174 800.249 211.585C800.249 249.298 783.374 280.875 747.451 280.875Z" fill="white"/>
<path d="M881.524 289.888C881.524 300.443 890.081 309 900.636 309V309C911.192 309 919.748 300.443 919.748 289.888V189.085C919.748 163.389 939.564 144.852 966.666 144.852V144.852C976.726 144.852 986.609 137.094 986.609 127.034V125.083C986.609 116.787 980.444 109.842 972.149 109.711C971.528 109.701 970.933 109.696 970.373 109.696C947.658 109.696 928.181 122.403 920.797 143.021C920.625 143.501 920.172 143.83 919.662 143.83V143.83C919.004 143.83 918.47 143.296 918.47 142.638V128.233C918.47 119.619 911.487 112.636 902.873 112.636H899.997C889.795 112.636 881.524 120.907 881.524 131.109V289.888Z" fill="white"/>
<path d="M1015.6 289.535C1015.6 300.285 1024.31 309 1035.06 309H1156.61C1165.78 309 1173.23 301.559 1173.23 292.381V292.381C1173.23 283.202 1165.78 275.761 1156.61 275.761H1068.71C1067.97 275.761 1067.37 275.163 1067.37 274.425V274.425C1067.37 274.131 1067.47 273.845 1067.65 273.612L1165.35 146.107C1168.14 142.474 1169.65 138.025 1169.65 133.449V133.449C1169.65 121.954 1160.33 112.636 1148.83 112.636H1035.67C1026.49 112.636 1019.05 120.077 1019.05 129.256V129.256C1019.05 138.434 1026.49 145.875 1035.67 145.875H1120.63C1121.37 145.875 1121.96 146.47 1121.96 147.204V147.204C1121.96 147.503 1121.86 147.792 1121.68 148.027L1019.77 277.495C1017.07 280.927 1015.6 285.167 1015.6 289.535V289.535Z" fill="white"/>
<path d="M1295.41 312.963C1350.76 312.963 1386.94 272.437 1386.94 211.713C1386.94 150.605 1350.76 110.08 1295.41 110.08C1240.05 110.08 1203.87 150.605 1203.87 211.713C1203.87 272.437 1240.05 312.963 1295.41 312.963ZM1295.54 280.875C1259.36 280.875 1242.48 249.298 1242.48 211.585C1242.48 174 1259.36 142.04 1295.54 142.04C1331.46 142.04 1348.34 174 1348.34 211.585C1348.34 249.298 1331.46 280.875 1295.54 280.875Z" fill="white"/>
</svg>
